<?xml version="1.0" encoding="UTF-8"?>
<!DOCTYPE svg PUBLIC "-//W3C//DTD SVG 1.1//EN" "http://www.w3.org/Graphics/SVG/1.1/DTD/svg11.dtd">
<!-- Creator: CorelDRAW X8 -->
<svg xmlns="http://www.w3.org/2000/svg" xml:space="preserve" width="16.9332mm" height="16.9332mm" version="1.1" style="shape-rendering:geometricPrecision; text-rendering:geometricPrecision; image-rendering:optimizeQuality; fill-rule:evenodd; clip-rule:evenodd"
viewBox="0 0 1693 1693"
 xmlns:xlink="http://www.w3.org/1999/xlink">
 <defs>
  <style type="text/css">
   <![CDATA[
    .fil0 {fill:#A7EEE2}
    .fil2 {fill:#EDEDED}
    .fil1 {fill:white}
   ]]>
  </style>
 </defs>
 <g id="Capa_x0020_1">
  <metadata id="CorelCorpID_0Corel-Layer"/>
  <g id="_1459426170400">
   <rect class="fil0" width="1693" height="1693"/>
   <path class="fil1" d="M629 1130c30,24 51,49 95,73 92,51 160,44 248,-5 68,-38 48,-49 91,-73 6,72 -31,95 -70,124 -189,142 -364,-33 -364,-119zm-629 390l0 173 1693 0 0 -173c-27,-31 -15,-40 -71,-80 -48,-35 -276,-84 -342,-101 -67,-17 -180,-36 -205,-88 -10,-23 -10,-119 -4,-143 3,-11 37,-70 47,-96 48,-127 99,-358 70,-506 -31,-156 -171,-235 -353,-235 -181,1 -322,85 -340,253 -16,155 26,368 78,499 7,18 14,33 24,51 20,31 22,20 27,48 32,175 -65,181 -216,219 -77,19 -156,40 -234,60 -123,31 -117,43 -174,119z"/>
   <path class="fil2" d="M629 1130c0,86 175,261 364,119 39,-29 76,-52 70,-124 -43,24 -23,35 -91,73 -88,49 -156,56 -248,5 -44,-24 -65,-49 -95,-73z"/>
  </g>
 </g>
</svg>
