<?xml version="1.0" encoding="UTF-8"?>
<!DOCTYPE svg PUBLIC "-//W3C//DTD SVG 1.1//EN" "http://www.w3.org/Graphics/SVG/1.1/DTD/svg11.dtd">
<!-- Creator: CorelDRAW X8 -->
<svg xmlns="http://www.w3.org/2000/svg" xml:space="preserve" width="84.6666mm" height="84.6666mm" version="1.1" style="shape-rendering:geometricPrecision; text-rendering:geometricPrecision; image-rendering:optimizeQuality; fill-rule:evenodd; clip-rule:evenodd"
viewBox="0 0 8467 8467"
 xmlns:xlink="http://www.w3.org/1999/xlink">
 <defs>
  <style type="text/css">
   <![CDATA[
    .fil0 {fill:white}
   ]]>
  </style>
 </defs>
 <g id="Capa_x0020_1">
  <metadata id="CorelCorpID_0Corel-Layer"/>
  <path class="fil0" d="M0 1379l0 -3c0,-759 616,-1375 1375,-1375l0 0 4102 0 0 0c760,0 1375,615 1375,1375 0,390 -162,742 -422,992l0 0 -581 581c77,229 119,475 119,730 0,1265 -1026,2290 -2290,2290 -256,0 -501,-42 -730,-119l1858 -1858 -1100 1100 2143 -2143c-305,-907 -1162,-1560 -2171,-1560 -1265,0 -2290,1025 -2290,2290 0,1009 653,1866 1560,2171l-600 600c-249,249 -593,403 -973,403 -759,0 -1375,-616 -1375,-1376l0 -3 0 -4095zm8467 6279l0 2c0,445 -361,806 -806,806l0 0 -2405 0 0 0c-445,0 -806,-361 -806,-806 0,-229 96,-435 248,-582l0 0 636 -635c-29,-87 -44,-179 -44,-275 0,-484 392,-877 877,-877 96,0 188,16 275,44l649 -649c146,-146 347,-236 570,-236 445,0 806,361 806,806l0 2 0 2400zm-3133 -1215c115,349 444,602 833,602 484,0 877,-393 877,-877 0,-388 -253,-718 -602,-833l-1108 1108z"/>
 </g>
</svg>
